<svg width="54" height="32" xmlns="http://www.w3.org/2000/svg"><path d="M26.206 5.21H27.9V3.517h1.694V1.825H27.9V.132h-1.694v1.693h-1.694v1.692h1.694V5.21zm10.959-.423A2.958 2.958 0 0 0 34.2 7.749a2.958 2.958 0 0 0 2.965 2.962 2.958 2.958 0 0 0 2.964-2.962 2.958 2.958 0 0 0-2.964-2.962zm-20.25 10.155h20.25v-3.385h-20.25v3.385zm2.964-7.193c0-1.64-1.323-2.962-2.938-2.962a2.958 2.958 0 0 0-2.965 2.962 2.958 2.958 0 0 0 2.965 2.962c1.615 0 2.938-1.323 2.938-2.962zm7.597 0a2.958 2.958 0 0 0 2.965 2.962c1.641 0 2.938-1.323 2.938-2.962 0-1.64-1.323-2.962-2.938-2.962a2.958 2.958 0 0 0-2.965 2.962zm-3.811 2.962a2.975 2.975 0 0 0 2.964-2.962 2.958 2.958 0 0 0-2.964-2.962A2.958 2.958 0 0 0 20.7 7.749c.026 1.64 1.324 2.962 2.965 2.962zm21.944 7.616-2.541 7.617-2.542-7.617h-8.444v13.514h5.056V21.686l3.388 10.129h5.056l3.362-10.129v10.129H54V18.3h-8.391v.026zm-23.638 0h-5.056v13.514h13.5V28.43H21.97V18.327zm-6.75 0h-5.056l-5.083 5.078v-5.078H.026v13.514h5.056v-5.077l5.083 5.077h6.75l-7.597-7.616 5.903-5.898z" fill="#00A1DE"/></svg>
